<svg width="200" height="200" viewBox="0 0 200 200" fill="none" xmlns="http://www.w3.org/2000/svg">
<path d="M181 100C181 110.637 178.905 121.17 174.834 130.997C170.764 140.825 164.797 149.754 157.276 157.276C149.754 164.797 140.825 170.764 130.997 174.834C121.17 178.905 110.637 181 100 181C89.3629 181 78.83 178.905 69.0026 174.834C59.1753 170.764 50.2459 164.797 42.7243 157.276C35.2028 149.754 29.2364 140.825 25.1658 130.997C21.0951 121.17 19 110.637 19 100C19 89.3629 21.0951 78.83 25.1658 69.0026C29.2364 59.1753 35.2028 50.2459 42.7244 42.7243C50.2459 35.2028 59.1753 29.2364 69.0026 25.1658C78.83 21.0951 89.3629 19 100 19C110.637 19 121.17 21.0951 130.997 25.1658C140.825 29.2364 149.754 35.2028 157.276 42.7244C164.797 50.2459 170.764 59.1753 174.834 69.0027C178.905 78.83 181 89.3629 181 100L181 100Z" stroke="white" stroke-width="8"/>
</svg>
