<svg width="200" height="200" viewBox="0 0 200 200" fill="none" xmlns="http://www.w3.org/2000/svg">
<g id="step">
<g id="stepLines">
<path d="M162.755 78.6262C158.83 73.7244 131.665 82.9791 122.846 90.5306C119.575 93.3316 127.216 127.264 131.351 136.747C135.931 147.251 147.707 170.635 166.68 162.657C188.27 153.579 181.728 124.843 178.457 115.04C173.396 99.8719 164.998 81.4273 162.755 78.6262Z" stroke="white" stroke-width="8" stroke-linecap="round"/>
<path d="M80.3202 108.037C76.3948 103.135 49.5708 95.4325 38.4487 93.3317C31.458 92.0113 22.7468 130.865 20.1298 140.949C16.8586 153.554 20.0296 177.339 38.4487 181.564C56.7675 185.765 70.5066 158.455 73.1236 149.352C75.7405 140.249 82.5634 110.838 80.3202 108.037Z" stroke="white" stroke-width="8" stroke-linecap="round"/>
<path d="M120.229 19.8047C109.107 23.6142 104.527 40.8124 111.07 56.218C113.667 62.3348 147.707 52.0165 147.707 46.4144C147.707 30.4462 133.374 15.3026 120.229 19.8047Z" stroke="white" stroke-width="8" stroke-linecap="round"/>
<path d="M78.3576 38.0114C91.4424 42.2129 97.9848 62.5204 90.1339 78.6262C87.398 84.2388 48.7172 72.1529 50.2251 64.6211C54.1505 45.014 66.4512 34.1883 78.3576 38.0114Z" stroke="white" stroke-width="8" stroke-linecap="round"/>
</g>
</g>
</svg>
